<svg width="115" height="131" viewBox="0 0 115 131" fill="none" xmlns="http://www.w3.org/2000/svg">
<path fill-rule="evenodd" clip-rule="evenodd" d="M102.275 48.4813L64.3937 70.0813L64.15 113.688L102.037 92.0938L102.275 48.4813ZM13.3625 91.8812L51.6437 114.262L51.8937 69.5062L13.6125 47.125L13.3625 91.8812ZM19.5938 36.1375L58.6437 58.9688L97.1687 37L58.1313 14.175L19.5938 36.1375ZM60.9375 129.906C59.975 130.45 58.9125 130.725 57.8437 130.725C56.9937 130.725 56.1687 130.5 55.375 130.156L3.94375 100.856C2.0125 99.725 0.837504 97.6563 0.84263 95.425L1.175 36.2312C1.1875 34.2 2.21875 32.35 3.8625 31.1937L55.075 1.525C57.0125 0.431252 59.3937 0.437501 61.325 1.5625L111.863 32.3875C113.713 33.5312 114.85 35.5437 114.838 37.725L114.519 95.7688C114.506 98 113.306 100.056 111.362 101.169L60.9375 129.906Z" fill="#B0084D"/>
</svg>
