<svg width="207" height="207" viewBox="0 0 207 207" fill="none" xmlns="http://www.w3.org/2000/svg">
<path fill-rule="evenodd" clip-rule="evenodd" d="M31.0246 165.194C22.2577 165.194 15.1202 158.002 15.1202 149.16C15.1202 140.326 22.2577 133.134 31.0246 133.134C39.7915 133.134 46.9366 140.326 46.9366 149.16C46.9366 158.002 39.7915 165.194 31.0246 165.194ZM45.2306 167.969C50.884 163.629 54.5866 156.853 54.5866 149.16C54.5866 136.071 44.0143 125.425 31.0246 125.425C27.8192 125.425 24.7745 126.081 21.9899 127.252L8.23522 103.248L26.3045 71.7124L19.6873 67.8582L0.516375 101.321C-0.172125 102.516 -0.172125 103.98 0.516375 105.175L15.5486 131.415C10.6373 135.763 7.47022 142.068 7.47022 149.16C7.47022 162.257 18.0349 172.902 31.0246 172.902C33.6409 172.902 36.1118 172.37 38.468 171.576L50.1878 193.33C50.861 194.571 52.1462 195.342 53.5462 195.342H95.6212V187.633H55.8259L45.2306 167.969ZM175.525 73.1385C166.751 73.1385 159.613 65.9465 159.613 57.1048C159.613 48.2708 166.751 41.071 175.525 41.071C184.292 41.071 191.43 48.2708 191.43 57.1048C191.43 65.9465 184.292 73.1385 175.525 73.1385ZM191.001 74.8575C195.913 70.5022 199.08 64.1966 199.08 57.1048C199.08 44.0157 188.515 33.3625 175.525 33.3625C172.917 33.3625 170.453 33.8944 168.105 34.6884L156.377 12.3876C155.72 11.1234 154.419 10.3371 152.996 10.3371H110.921V18.0457H150.701L161.335 38.2728C155.681 42.6127 151.963 49.404 151.963 57.1048C151.963 70.1939 162.528 80.847 175.525 80.847C178.731 80.847 181.775 80.1841 184.552 79.0124L198.307 103.024L180.245 134.552L186.863 138.407L206.034 104.952C206.722 103.757 206.722 102.284 206.034 101.097L191.001 74.8575ZM156.018 198.841C147.243 198.841 140.106 191.649 140.106 182.815C140.106 173.974 147.243 166.782 156.018 166.782C164.785 166.782 171.922 173.974 171.922 182.815C171.922 191.649 164.785 198.841 156.018 198.841ZM85.7144 133.882L68.173 103.271L85.7144 72.6683H120.782L138.331 103.271L120.782 133.882H85.7144ZM50.7692 39.7683C42.0023 39.7683 34.8649 32.5762 34.8649 23.7346C34.8649 14.9006 42.0023 7.70853 50.7692 7.70853C59.5438 7.70853 66.6812 14.9006 66.6812 23.7346C66.6812 32.5762 59.5438 39.7683 50.7692 39.7683ZM156.018 159.073C151.237 159.073 146.8 160.538 143.074 163.012L127.246 138.021L146.058 105.198C146.746 104.011 146.746 102.539 146.058 101.344L126.305 66.8869C125.624 65.6921 124.362 64.9598 122.993 64.9598H86.6401L69.2134 38.3268C72.3652 34.2952 74.3312 29.2616 74.3312 23.7346C74.3312 10.6455 63.7589 0 50.7692 0C37.7795 0 27.2149 10.6455 27.2149 23.7346C27.2149 36.8313 37.7795 47.4768 50.7692 47.4768C55.474 47.4768 59.8498 46.043 63.5294 43.638L79.5179 68.0663L60.4541 101.344C59.7656 102.539 59.7656 104.011 60.4541 105.198L80.1988 139.663C80.8796 140.858 82.1419 141.59 83.5036 141.59H120.438L137.413 168.408C134.353 172.417 132.456 177.373 132.456 182.815C132.456 195.897 143.028 206.55 156.018 206.55C169.008 206.55 179.572 195.897 179.572 182.815C179.572 169.719 169.008 159.073 156.018 159.073Z" fill="black"/>
</svg>
